<svg width="24" height="24" viewBox="0 0 24 24" fill="none" xmlns="http://www.w3.org/2000/svg">
<g clip-path="url(#clip0_2902_2374)">
<path d="M18.756 8.048C18.949 8.245 18.947 8.562 18.75 8.756L13.425 14C12.739 14.671 11.857 15.007 10.975 15.007C10.102 15.007 9.228 14.678 8.545 14.019L6.249 11.755C6.053 11.561 6.051 11.245 6.244 11.048C6.44 10.851 6.756 10.849 6.952 11.043L9.244 13.303C10.218 14.244 11.749 14.24 12.724 13.285L18.048 8.042C18.243 7.849 18.561 7.851 18.755 8.047L18.756 8.048ZM24 12C24 18.617 18.617 24 12 24C5.383 24 0 18.617 0 12C0 5.383 5.383 0 12 0C18.617 0 24 5.383 24 12ZM23 12C23 5.935 18.065 1 12 1C5.935 1 1 5.935 1 12C1 18.065 5.935 23 12 23C18.065 23 23 18.065 23 12Z" fill="#FC7B1B"/>
</g>
<defs>
<clipPath id="clip0_2902_2374">
<rect width="24" height="24" fill="white"/>
</clipPath>
</defs>
</svg>
