<svg width="30" height="30" viewBox="0 0 30 30" fill="none" xmlns="http://www.w3.org/2000/svg">
<rect x="3.5" y="3.5" width="23" height="23" rx="1.8" stroke="white" stroke-width="1.8"/>
<path d="M11 12.2H13.6V20.2H11V12.2ZM12.3 8.6C11.4 8.6 10.8 9.2 10.8 10C10.8 10.8 11.4 11.4 12.3 11.4H12.3C13.1 11.4 13.8 10.8 13.8 10C13.8 9.2 13.1 8.6 12.3 8.6Z" fill="white"/>
<path d="M15.6 12.2H18.1V13.3C18.5 12.6 19.3 12 20.6 12C22.5 12 23.7 13.2 23.7 15.4V20.2H21.2V15.8C21.2 14.7 20.8 14 19.8 14C18.9 14 18.3 14.6 18.3 15.8V20.2H15.6V12.2Z" fill="white"/>
</svg>
