<svg width="30" height="30" viewBox="0 0 30 30" fill="none" xmlns="http://www.w3.org/2000/svg">
<rect x="3.5" y="3.5" width="23" height="23" rx="11.5" stroke="white" stroke-width="1.8"/>
<path d="M19.2 18.8C18.8 18.5 18.2 18.3 17.8 18.1C17.4 17.9 17.2 17.8 16.9 18.1C16.6 18.4 16.1 18.9 15.8 19.1C15.5 19.4 15.2 19.4 14.8 19.2C14.4 19.1 13.3 18.7 12.3 17.8C11.5 17 10.9 16 10.7 15.6C10.5 15.2 10.7 15 10.9 14.8C11.1 14.6 11.3 14.3 11.5 14.1C11.7 13.9 11.8 13.7 12 13.4C12.1 13.1 12 12.9 11.9 12.7C11.8 12.5 11.1 10.7 10.9 10.2C10.7 9.8 10.5 9.8 10.2 9.8H9.7C9.4 9.8 9.1 9.9 8.9 10.2C8.7 10.5 8 11.2 8 12.6C8 14 8.9 15.4 9 15.6C9.2 15.8 11.1 18.8 14.1 20C17.1 21.2 17.1 20.9 17.7 20.9C18.3 20.9 19.6 20.1 19.8 19.4C20 18.8 20 18.3 19.9 18.2C19.8 18 19.5 17.9 19.2 18.8Z" fill="white"/>
</svg>
